<?xml version="1.0" standalone="no"?>
<!DOCTYPE svg PUBLIC "-//W3C//DTD SVG 20010904//EN"
 "http://www.w3.org/TR/2001/REC-SVG-20010904/DTD/svg10.dtd">
<svg version="1.0" xmlns="http://www.w3.org/2000/svg"
 width="310.000000pt" height="240.000000pt" viewBox="0 0 310.000000 240.000000"
 preserveAspectRatio="xMidYMid meet">

<g transform="translate(0.000000,240.000000) scale(0.100000,-0.100000)"
fill="#000000" stroke="none">
<path d="M1816 2124 c-21 -20 -20 -23 7 -53 13 -15 45 -84 71 -154 l48 -128
-91 -134 c-50 -73 -95 -144 -100 -158 -8 -19 -4 -52 15 -128 18 -76 22 -110
15 -134 -16 -59 24 -118 81 -118 65 0 93 95 43 145 -22 22 -75 166 -75 202 0
6 41 74 90 150 50 77 90 150 90 162 0 12 -25 83 -55 156 -32 80 -52 143 -49
155 4 14 -1 26 -17 37 -29 20 -53 20 -73 0z"/>
<path d="M1588 2099 c-22 -12 -23 -37 -2 -60 8 -9 33 -82 53 -162 21 -80 42
-150 45 -156 11 -17 56 -13 63 5 3 8 -13 80 -36 158 -27 92 -40 153 -36 169
11 41 -45 71 -87 46z"/>
<path d="M1344 2070 c-31 -12 -37 -38 -15 -66 11 -14 21 -49 26 -89 7 -72 23
-89 64 -74 21 8 22 13 15 47 -5 20 -8 68 -9 105 0 83 -20 102 -81 77z"/>
<path d="M1146 1561 c-16 -18 -17 -36 -7 -238 11 -212 10 -220 -10 -259 -35
-69 -6 -134 60 -134 45 0 74 19 95 64 22 46 20 67 -8 108 -21 31 -25 55 -39
246 -9 117 -19 217 -22 222 -10 17 -51 11 -69 -9z"/>
<path d="M1270 751 c-114 -37 -179 -122 -180 -234 0 -69 19 -120 63 -165 53
-56 102 -76 182 -76 80 0 129 20 182 76 43 45 63 96 63 163 0 95 -48 173 -134
217 -43 22 -136 32 -176 19z m149 -82 c96 -54 120 -184 49 -265 -41 -46 -77
-64 -133 -64 -131 0 -213 136 -154 257 41 85 154 119 238 72z"/>
<path d="M1732 743 c-40 -19 -58 -45 -67 -93 -9 -57 19 -97 100 -142 71 -39
115 -78 115 -102 0 -7 -9 -25 -21 -40 -16 -21 -29 -26 -64 -26 -35 0 -48 5
-67 28 -20 24 -27 26 -50 18 -34 -12 -34 -14 -5 -57 55 -82 197 -76 254 10 50
75 21 148 -78 200 -83 44 -109 68 -109 102 0 54 66 76 113 38 22 -17 30 -18
49 -8 32 16 31 15 18 39 -25 47 -125 64 -188 33z"/>
<path d="M2494 746 c-47 -21 -74 -62 -74 -112 0 -55 33 -95 112 -135 72 -36
98 -61 98 -94 0 -66 -98 -90 -149 -37 -22 24 -30 27 -49 19 -63 -28 29 -117
120 -117 50 1 114 34 132 69 9 16 16 50 16 75 0 58 -29 92 -115 136 -94 48
-117 88 -75 130 26 26 70 26 103 -1 22 -16 30 -18 47 -9 47 25 -9 80 -87 87
-28 2 -61 -3 -79 -11z"/>
<path d="M390 514 l0 -235 33 3 32 3 5 105 5 105 65 6 c36 3 73 9 82 13 51 23
69 132 31 184 -27 37 -73 51 -170 51 l-83 1 0 -236z m157 165 c34 -13 43 -25
43 -65 0 -41 -16 -53 -79 -61 l-51 -6 0 72 0 71 29 0 c16 0 42 -5 58 -11z"/>
<path d="M710 746 c0 -2 29 -52 65 -112 l65 -107 -75 -121 c-75 -120 -75 -121
-49 -124 14 -2 31 -1 38 1 7 3 36 44 66 93 40 65 56 84 63 73 4 -8 28 -49 53
-91 43 -74 46 -78 80 -78 44 0 45 -3 -41 141 l-65 107 65 105 c36 58 65 107
65 111 0 3 -15 6 -33 6 -31 0 -37 -6 -81 -80 -27 -44 -50 -80 -51 -80 -1 0
-23 36 -49 80 -44 76 -48 80 -81 80 -19 0 -35 -2 -35 -4z"/>
<path d="M1993 737 c2 -7 37 -63 76 -125 l71 -113 0 -109 0 -110 35 0 35 0 0
108 0 109 73 114 c40 63 76 120 81 127 5 9 -2 12 -27 12 -33 0 -38 -5 -91 -86
-31 -48 -56 -91 -56 -95 0 -24 -21 0 -74 86 -56 90 -61 95 -94 95 -23 0 -33
-4 -29 -13z"/>
</g>
</svg>
